<svg width="467" height="261" viewBox="0 0 467 261" fill="none" xmlns="http://www.w3.org/2000/svg">
<path d="M69.0966 173.382C69.7922 173.382 70.3564 173.947 70.3564 174.642V187.376C70.3564 188.071 69.7922 188.635 69.0966 188.635H8.25873C7.56333 188.635 6.99995 188.071 6.99994 187.376L6.99994 79.021C6.99994 78.3256 7.56333 77.7615 8.25873 77.7613L69.0966 77.7613C69.7922 77.7613 70.3564 78.3254 70.3564 79.021V91.7544C70.3563 92.45 69.7922 93.0142 69.0966 93.0142L22.2519 93.0142L22.2519 173.382H69.0966Z" fill="url(#paint0_linear_27_1108)"/>
<path d="M402.162 173.382C401.467 173.382 400.902 173.947 400.902 174.642V187.376C400.902 188.071 401.467 188.635 402.162 188.635H463C463.695 188.635 464.259 188.071 464.259 187.376V79.021C464.259 78.3256 463.695 77.7615 463 77.7613L402.162 77.7613C401.467 77.7613 400.902 78.3254 400.902 79.021V91.7544C400.902 92.45 401.467 93.0142 402.162 93.0142L449.007 93.0142V173.382H402.162Z" fill="url(#paint1_linear_27_1108)"/>
<g filter="url(#filter0_d_27_1108)">
<g filter="url(#filter1_f_27_1108)">
<path d="M421.503 130.139L373.154 120.471C351.802 116.201 332.448 105.027 318.074 88.6704L285.527 51.6328L312.088 130.139L285.527 208.645L318.074 171.607C332.448 155.251 351.802 144.077 373.154 139.807L421.503 130.139Z" fill="#39FF14"/>
</g>
<g opacity="0.4" filter="url(#filter2_f_27_1108)">
<path d="M433.622 130.139L370.787 117.574C349.435 113.305 330.081 102.13 315.707 85.7738L273.408 37.6397L304.703 130.139L273.408 222.638L315.707 174.504C330.081 158.147 349.435 146.973 370.787 142.703L433.622 130.139Z" fill="#39FF14"/>
</g>
<g style="mix-blend-mode:plus-lighter" filter="url(#filter3_f_27_1108)">
<ellipse cx="44.3067" cy="31.3076" rx="44.3067" ry="31.3076" transform="matrix(-1.31134e-07 -1 -1 1.31134e-07 327.402 174.446)" fill="#4A3AFF"/>
</g>
<g style="mix-blend-mode:plus-lighter" filter="url(#filter4_f_27_1108)">
<path d="M317.249 130.153C317.248 84.5372 310.837 44.947 301.442 25.1776C310.236 46.1317 316.153 85.2963 316.153 130.153C316.153 175.009 310.236 214.173 301.442 235.128C310.836 215.358 317.249 175.768 317.249 130.153Z" fill="#39FF14"/>
</g>
<g style="mix-blend-mode:plus-lighter" filter="url(#filter5_f_27_1108)">
<path d="M301.44 25.1726C310.235 46.1255 316.153 85.293 316.153 130.153C316.153 175.014 310.235 214.182 301.44 235.135C310.836 215.367 319.889 175.773 319.889 130.153C319.889 84.5336 310.836 44.9404 301.44 25.1726Z" fill="#4A3AFF"/>
</g>
<path d="M286.731 8.96445C277.652 8.96445 254.825 -10.93 249.428 15.6937C245.165 36.7197 249.428 107.18 249.428 136.714C249.428 163.284 247.786 219.712 251.307 239.686C256.654 270.027 275.623 252.083 286.731 251.342C302.98 251.342 316.153 197.084 316.153 130.153C316.153 63.2226 302.98 8.96445 286.731 8.96445Z" fill="url(#paint2_radial_27_1108)"/>
</g>
<g filter="url(#filter6_d_27_1108)">
<g filter="url(#filter7_f_27_1108)">
<path d="M45.9359 130.139L94.2851 120.471C115.637 116.201 134.992 105.027 149.365 88.6704L181.912 51.6328L155.352 130.139L181.912 208.645L149.365 171.607C134.992 155.251 115.637 144.077 94.2851 139.807L45.9359 130.139Z" fill="#39FF14"/>
</g>
<g opacity="0.4" filter="url(#filter8_f_27_1108)">
<path d="M33.8175 130.139L96.6521 117.574C118.004 113.305 137.359 102.13 151.732 85.7738L194.031 37.6397L162.736 130.139L194.031 222.638L151.732 174.504C137.359 158.147 118.004 146.973 96.6521 142.703L33.8175 130.139Z" fill="#39FF14"/>
</g>
<g style="mix-blend-mode:plus-lighter" filter="url(#filter9_f_27_1108)">
<ellipse cx="171.345" cy="130.139" rx="44.3067" ry="31.3076" transform="rotate(-90 171.345 130.139)" fill="#4A3AFF"/>
</g>
<g style="mix-blend-mode:plus-lighter" filter="url(#filter10_f_27_1108)">
<path d="M150.191 130.153C150.191 84.5372 156.602 44.947 165.997 25.1776C157.203 46.1317 151.286 85.2963 151.286 130.153C151.286 175.009 157.203 214.173 165.997 235.128C156.603 215.358 150.191 175.768 150.191 130.153Z" fill="#39FF14"/>
</g>
<g style="mix-blend-mode:plus-lighter" filter="url(#filter11_f_27_1108)">
<path d="M165.999 25.1726C157.204 46.1255 151.286 85.293 151.286 130.153C151.286 175.014 157.204 214.182 166 235.135C156.603 215.367 147.55 175.773 147.55 130.153C147.55 84.5336 156.603 44.9404 165.999 25.1726Z" fill="#4A3AFF"/>
</g>
<path d="M180.708 8.96447C189.788 8.96447 212.615 -10.93 218.012 15.6937C222.274 36.7197 218.012 107.18 218.012 136.714C218.012 163.284 219.653 219.712 216.133 239.686C210.785 270.027 191.816 252.083 180.708 251.342C164.459 251.342 151.286 197.084 151.286 130.153C151.286 63.2226 164.459 8.96446 180.708 8.96447Z" fill="url(#paint3_radial_27_1108)"/>
</g>
<path d="M192.493 121.187L200.028 128.748C218.754 109.957 249.122 109.957 267.847 128.748L275.382 121.187C252.512 98.2368 215.4 98.2368 192.493 121.187ZM222.634 151.434L233.938 162.776L245.241 151.434C239.024 145.157 228.889 145.157 222.634 151.434ZM207.564 136.31L215.099 143.872C225.498 133.437 242.377 133.437 252.776 143.872L260.312 136.31C245.768 121.716 222.145 121.716 207.564 136.31Z" fill="url(#paint4_linear_27_1108)"/>
<defs>
<filter id="filter0_d_27_1108" x="245.218" y="0.169736" width="190.719" height="260.089" filterUnits="userSpaceOnUse" color-interpolation-filters="sRGB">
<feFlood flood-opacity="0" result="BackgroundImageFix"/>
<feColorMatrix in="SourceAlpha" type="matrix" values="0 0 0 0 0 0 0 0 0 0 0 0 0 0 0 0 0 0 127 0" result="hardAlpha"/>
<feOffset dy="0.661512"/>
<feGaussianBlur stdDeviation="1.15765"/>
<feComposite in2="hardAlpha" operator="out"/>
<feColorMatrix type="matrix" values="0 0 0 0 0 0 0 0 0 0 0 0 0 0 0 0 0 0 0.25 0"/>
<feBlend mode="normal" in2="BackgroundImageFix" result="effect1_dropShadow_27_1108"/>
<feBlend mode="normal" in="SourceGraphic" in2="effect1_dropShadow_27_1108" result="shape"/>
</filter>
<filter id="filter1_f_27_1108" x="252.451" y="18.5572" width="202.128" height="223.163" filterUnits="userSpaceOnUse" color-interpolation-filters="sRGB">
<feFlood flood-opacity="0" result="BackgroundImageFix"/>
<feBlend mode="normal" in="SourceGraphic" in2="BackgroundImageFix" result="shape"/>
<feGaussianBlur stdDeviation="16.5378" result="effect1_foregroundBlur_27_1108"/>
</filter>
<filter id="filter2_f_27_1108" x="240.333" y="4.56406" width="226.364" height="251.15" filterUnits="userSpaceOnUse" color-interpolation-filters="sRGB">
<feFlood flood-opacity="0" result="BackgroundImageFix"/>
<feBlend mode="normal" in="SourceGraphic" in2="BackgroundImageFix" result="shape"/>
<feGaussianBlur stdDeviation="16.5378" result="effect1_foregroundBlur_27_1108"/>
</filter>
<filter id="filter3_f_27_1108" x="226.634" y="47.6795" width="138.921" height="164.919" filterUnits="userSpaceOnUse" color-interpolation-filters="sRGB">
<feFlood flood-opacity="0" result="BackgroundImageFix"/>
<feBlend mode="normal" in="SourceGraphic" in2="BackgroundImageFix" result="shape"/>
<feGaussianBlur stdDeviation="19.0764" result="effect1_foregroundBlur_27_1108"/>
</filter>
<filter id="filter4_f_27_1108" x="300.069" y="23.8049" width="18.5519" height="212.695" filterUnits="userSpaceOnUse" color-interpolation-filters="sRGB">
<feFlood flood-opacity="0" result="BackgroundImageFix"/>
<feBlend mode="normal" in="SourceGraphic" in2="BackgroundImageFix" result="shape"/>
<feGaussianBlur stdDeviation="0.686319" result="effect1_foregroundBlur_27_1108"/>
</filter>
<filter id="filter5_f_27_1108" x="290.789" y="14.5222" width="39.75" height="231.263" filterUnits="userSpaceOnUse" color-interpolation-filters="sRGB">
<feFlood flood-opacity="0" result="BackgroundImageFix"/>
<feBlend mode="normal" in="SourceGraphic" in2="BackgroundImageFix" result="shape"/>
<feGaussianBlur stdDeviation="5.32517" result="effect1_foregroundBlur_27_1108"/>
</filter>
<filter id="filter6_d_27_1108" x="31.5022" y="0.169736" width="190.719" height="260.089" filterUnits="userSpaceOnUse" color-interpolation-filters="sRGB">
<feFlood flood-opacity="0" result="BackgroundImageFix"/>
<feColorMatrix in="SourceAlpha" type="matrix" values="0 0 0 0 0 0 0 0 0 0 0 0 0 0 0 0 0 0 127 0" result="hardAlpha"/>
<feOffset dy="0.661512"/>
<feGaussianBlur stdDeviation="1.15765"/>
<feComposite in2="hardAlpha" operator="out"/>
<feColorMatrix type="matrix" values="0 0 0 0 0 0 0 0 0 0 0 0 0 0 0 0 0 0 0.25 0"/>
<feBlend mode="normal" in2="BackgroundImageFix" result="effect1_dropShadow_27_1108"/>
<feBlend mode="normal" in="SourceGraphic" in2="effect1_dropShadow_27_1108" result="shape"/>
</filter>
<filter id="filter7_f_27_1108" x="12.8603" y="18.5572" width="202.128" height="223.163" filterUnits="userSpaceOnUse" color-interpolation-filters="sRGB">
<feFlood flood-opacity="0" result="BackgroundImageFix"/>
<feBlend mode="normal" in="SourceGraphic" in2="BackgroundImageFix" result="shape"/>
<feGaussianBlur stdDeviation="16.5378" result="effect1_foregroundBlur_27_1108"/>
</filter>
<filter id="filter8_f_27_1108" x="0.741829" y="4.56406" width="226.364" height="251.15" filterUnits="userSpaceOnUse" color-interpolation-filters="sRGB">
<feFlood flood-opacity="0" result="BackgroundImageFix"/>
<feBlend mode="normal" in="SourceGraphic" in2="BackgroundImageFix" result="shape"/>
<feGaussianBlur stdDeviation="16.5378" result="effect1_foregroundBlur_27_1108"/>
</filter>
<filter id="filter9_f_27_1108" x="101.885" y="47.6795" width="138.921" height="164.919" filterUnits="userSpaceOnUse" color-interpolation-filters="sRGB">
<feFlood flood-opacity="0" result="BackgroundImageFix"/>
<feBlend mode="normal" in="SourceGraphic" in2="BackgroundImageFix" result="shape"/>
<feGaussianBlur stdDeviation="19.0764" result="effect1_foregroundBlur_27_1108"/>
</filter>
<filter id="filter10_f_27_1108" x="148.818" y="23.8049" width="18.5519" height="212.695" filterUnits="userSpaceOnUse" color-interpolation-filters="sRGB">
<feFlood flood-opacity="0" result="BackgroundImageFix"/>
<feBlend mode="normal" in="SourceGraphic" in2="BackgroundImageFix" result="shape"/>
<feGaussianBlur stdDeviation="0.686319" result="effect1_foregroundBlur_27_1108"/>
</filter>
<filter id="filter11_f_27_1108" x="136.9" y="14.5222" width="39.75" height="231.263" filterUnits="userSpaceOnUse" color-interpolation-filters="sRGB">
<feFlood flood-opacity="0" result="BackgroundImageFix"/>
<feBlend mode="normal" in="SourceGraphic" in2="BackgroundImageFix" result="shape"/>
<feGaussianBlur stdDeviation="5.32517" result="effect1_foregroundBlur_27_1108"/>
</filter>
<linearGradient id="paint0_linear_27_1108" x1="6.99994" y1="123.457" x2="70.0533" y2="123.457" gradientUnits="userSpaceOnUse">
<stop stop-color="#5FD52E"/>
<stop offset="1" stop-color="#326F18" stop-opacity="0"/>
</linearGradient>
<linearGradient id="paint1_linear_27_1108" x1="464.259" y1="123.457" x2="401.205" y2="123.457" gradientUnits="userSpaceOnUse">
<stop stop-color="#5FD52E"/>
<stop offset="1" stop-color="#326F18" stop-opacity="0"/>
</linearGradient>
<radialGradient id="paint2_radial_27_1108" cx="0" cy="0" r="1" gradientUnits="userSpaceOnUse" gradientTransform="translate(281.882 139.397) rotate(90.0189) scale(117.884 31.6654)">
<stop/>
<stop offset="1" stop-color="#666666" stop-opacity="0"/>
</radialGradient>
<radialGradient id="paint3_radial_27_1108" cx="0" cy="0" r="1" gradientUnits="userSpaceOnUse" gradientTransform="translate(185.557 139.397) rotate(89.9811) scale(117.884 31.6654)">
<stop/>
<stop offset="0.389423" stop-color="#1A1A1A" stop-opacity="0.87"/>
<stop offset="1" stop-color="#666666" stop-opacity="0"/>
</radialGradient>
<linearGradient id="paint4_linear_27_1108" x1="233.938" y1="103.974" x2="233.938" y2="162.776" gradientUnits="userSpaceOnUse">
<stop stop-color="#5FD52E"/>
<stop offset="0.875" stop-color="#5FD52E" stop-opacity="0.26"/>
</linearGradient>
</defs>
</svg>
