<svg width="1430" height="1175" viewBox="0 0 1430 1175" fill="none" xmlns="http://www.w3.org/2000/svg">
<g clip-path="url(#clip0_175_9646)">
<rect width="1430" height="1175" fill="black"/>
<g filter="url(#filter0_f_175_9646)">
<path d="M714.168 958C648.914 958 586.332 983.922 540.19 1030.06C494.049 1076.21 468.126 1138.79 468.126 1204.04C468.126 1269.3 494.049 1331.88 540.19 1378.02C586.332 1424.16 648.914 1450.08 714.168 1450.08C779.423 1450.08 842.005 1424.16 888.146 1378.02C934.288 1331.88 960.21 1269.3 960.21 1204.04C960.21 1138.79 934.288 1076.21 888.146 1030.06C842.005 983.922 779.423 958 714.168 958ZM850.752 1218.2C847.724 1222.19 843.528 1225.12 838.75 1226.61L800.103 1239.57C788.294 1243.6 777.546 1250.25 768.658 1259.01C759.829 1267.85 753.173 1278.61 749.214 1290.46L736.012 1329.1C734.236 1333.46 731.337 1337.27 727.611 1340.15C723.625 1343.03 718.849 1344.62 713.928 1344.71C708.983 1344.78 704.159 1343.17 700.246 1340.15C696.254 1337.28 693.238 1333.26 691.605 1328.62L678.882 1289.98C674.928 1278.09 668.244 1267.29 659.365 1258.46C650.486 1249.62 639.659 1242.99 627.754 1239.09L589.347 1226.37C584.713 1224.73 580.691 1221.72 577.825 1217.72C574.833 1213.79 573.229 1208.98 573.264 1204.04C573.297 1199.04 574.891 1194.17 577.825 1190.12C580.582 1186.23 584.549 1183.36 589.107 1181.96L627.754 1169C639.7 1164.95 650.603 1158.31 659.679 1149.55C668.561 1140.58 675.21 1129.63 679.122 1117.63L692.085 1079.7C693.523 1075.16 696.281 1071.15 700.006 1068.18C703.834 1064.95 708.678 1063.16 713.688 1063.14C718.451 1063.06 723.13 1064.39 727.131 1066.98C731.355 1069.6 734.569 1073.58 736.252 1078.26L749.214 1117.39C753.247 1129.46 759.968 1140.46 768.898 1149.55C777.919 1158.26 788.733 1164.9 800.583 1169L839.23 1182.44C843.822 1183.9 847.794 1186.86 850.512 1190.84C853.313 1194.85 854.821 1199.63 854.832 1204.52C854.808 1209.37 853.392 1214.12 850.752 1218.2Z" fill="#0A3C00"/>
</g>
<g opacity="0.4" filter="url(#filter1_f_175_9646)">
<ellipse cx="420.574" cy="358.073" rx="420.574" ry="358.073" transform="matrix(-1 8.74228e-08 8.74228e-08 1 1140.11 -678.671)" fill="url(#paint0_linear_175_9646)"/>
</g>
<g style="mix-blend-mode:plus-lighter" opacity="0.6" filter="url(#filter2_f_175_9646)">
<path d="M427.531 -289.193C610.371 -9.24267 690.768 379.136 708.111 538.332C688.787 -12.764 345.774 -592.179 176.683 -813C184.116 -755.044 244.691 -569.144 427.531 -289.193Z" fill="url(#paint1_linear_175_9646)"/>
</g>
<g style="mix-blend-mode:plus-lighter" opacity="0.6" filter="url(#filter3_f_175_9646)">
<path d="M1011.55 -289.193C828.71 -9.24268 748.313 379.136 730.97 538.332C750.295 -12.764 1093.31 -592.179 1262.4 -813C1254.97 -755.044 1194.39 -569.144 1011.55 -289.193Z" fill="url(#paint2_linear_175_9646)"/>
</g>
<g opacity="0.3" filter="url(#filter4_f_175_9646)">
<path d="M683.633 408.393C678.701 262.579 654.489 -100.281 597.087 -385.21C633.086 -286.194 700.795 11.1487 683.633 408.393Z" fill="url(#paint3_linear_175_9646)"/>
</g>
<g opacity="0.3" filter="url(#filter5_f_175_9646)">
<path d="M755.448 408.393C760.38 262.579 784.593 -100.281 841.994 -385.21C805.995 -286.194 738.287 11.1487 755.448 408.393Z" fill="url(#paint4_linear_175_9646)"/>
</g>
<g opacity="0.6" filter="url(#filter6_f_175_9646)">
<path d="M665.138 210.53C623.962 12.6675 484.504 -396.176 256.084 -448.654C378.874 -536.115 632.591 -526.724 665.138 210.53Z" fill="url(#paint5_linear_175_9646)"/>
</g>
<g opacity="0.6" filter="url(#filter7_f_175_9646)">
<path d="M773.943 210.53C815.119 12.6675 954.578 -396.176 1183 -448.654C1060.21 -536.115 806.49 -526.724 773.943 210.53Z" fill="url(#paint6_linear_175_9646)"/>
</g>
<g style="mix-blend-mode:screen" filter="url(#filter8_f_175_9646)">
<path d="M719.541 424.591C719.682 426.6 719.82 428.608 719.954 430.614C720.201 421.83 720.64 412.322 721.262 402.168C750.067 55.4345 880.714 -314.635 922.071 -395.666C929.79 -402.103 937.487 -423.429 945.11 -423.429L493.971 -423.429C501.594 -423.429 509.291 -402.103 517.01 -395.666C558.367 -314.635 689.014 55.4345 717.819 402.168C718.441 412.322 718.88 421.83 719.127 430.614C719.261 428.608 719.399 426.6 719.541 424.591Z" fill="url(#paint7_linear_175_9646)"/>
</g>
</g>
<defs>
<filter id="filter0_f_175_9646" x="3.67514" y="493.549" width="1420.99" height="1420.99" filterUnits="userSpaceOnUse" color-interpolation-filters="sRGB">
<feFlood flood-opacity="0" result="BackgroundImageFix"/>
<feBlend mode="normal" in="SourceGraphic" in2="BackgroundImageFix" result="shape"/>
<feGaussianBlur stdDeviation="232.226" result="effect1_foregroundBlur_175_9646"/>
</filter>
<filter id="filter1_f_175_9646" x="-114.033" y="-1091.67" width="1667.15" height="1542.15" filterUnits="userSpaceOnUse" color-interpolation-filters="sRGB">
<feFlood flood-opacity="0" result="BackgroundImageFix"/>
<feBlend mode="normal" in="SourceGraphic" in2="BackgroundImageFix" result="shape"/>
<feGaussianBlur stdDeviation="206.5" result="effect1_foregroundBlur_175_9646"/>
</filter>
<filter id="filter2_f_175_9646" x="131.984" y="-857.7" width="620.827" height="1440.73" filterUnits="userSpaceOnUse" color-interpolation-filters="sRGB">
<feFlood flood-opacity="0" result="BackgroundImageFix"/>
<feBlend mode="normal" in="SourceGraphic" in2="BackgroundImageFix" result="shape"/>
<feGaussianBlur stdDeviation="22.35" result="effect1_foregroundBlur_175_9646"/>
</filter>
<filter id="filter3_f_175_9646" x="686.27" y="-857.7" width="620.827" height="1440.73" filterUnits="userSpaceOnUse" color-interpolation-filters="sRGB">
<feFlood flood-opacity="0" result="BackgroundImageFix"/>
<feBlend mode="normal" in="SourceGraphic" in2="BackgroundImageFix" result="shape"/>
<feGaussianBlur stdDeviation="22.35" result="effect1_foregroundBlur_175_9646"/>
</filter>
<filter id="filter4_f_175_9646" x="569.287" y="-413.01" width="144.883" height="849.203" filterUnits="userSpaceOnUse" color-interpolation-filters="sRGB">
<feFlood flood-opacity="0" result="BackgroundImageFix"/>
<feBlend mode="normal" in="SourceGraphic" in2="BackgroundImageFix" result="shape"/>
<feGaussianBlur stdDeviation="13.9" result="effect1_foregroundBlur_175_9646"/>
</filter>
<filter id="filter5_f_175_9646" x="724.91" y="-413.01" width="144.883" height="849.203" filterUnits="userSpaceOnUse" color-interpolation-filters="sRGB">
<feFlood flood-opacity="0" result="BackgroundImageFix"/>
<feBlend mode="normal" in="SourceGraphic" in2="BackgroundImageFix" result="shape"/>
<feGaussianBlur stdDeviation="13.9" result="effect1_foregroundBlur_175_9646"/>
</filter>
<filter id="filter6_f_175_9646" x="184.183" y="-558.131" width="552.855" height="840.561" filterUnits="userSpaceOnUse" color-interpolation-filters="sRGB">
<feFlood flood-opacity="0" result="BackgroundImageFix"/>
<feBlend mode="normal" in="SourceGraphic" in2="BackgroundImageFix" result="shape"/>
<feGaussianBlur stdDeviation="35.95" result="effect1_foregroundBlur_175_9646"/>
</filter>
<filter id="filter7_f_175_9646" x="702.043" y="-558.131" width="552.855" height="840.561" filterUnits="userSpaceOnUse" color-interpolation-filters="sRGB">
<feFlood flood-opacity="0" result="BackgroundImageFix"/>
<feBlend mode="normal" in="SourceGraphic" in2="BackgroundImageFix" result="shape"/>
<feGaussianBlur stdDeviation="35.95" result="effect1_foregroundBlur_175_9646"/>
</filter>
<filter id="filter8_f_175_9646" x="440.171" y="-477.229" width="558.74" height="961.643" filterUnits="userSpaceOnUse" color-interpolation-filters="sRGB">
<feFlood flood-opacity="0" result="BackgroundImageFix"/>
<feBlend mode="normal" in="SourceGraphic" in2="BackgroundImageFix" result="shape"/>
<feGaussianBlur stdDeviation="26.9" result="effect1_foregroundBlur_175_9646"/>
</filter>
<linearGradient id="paint0_linear_175_9646" x1="420.574" y1="105.144" x2="420.574" y2="872.299" gradientUnits="userSpaceOnUse">
<stop stop-color="#4A3AFF"/>
<stop offset="1" stop-color="#2388FF"/>
</linearGradient>
<linearGradient id="paint1_linear_175_9646" x1="442.397" y1="-813" x2="442.397" y2="538.332" gradientUnits="userSpaceOnUse">
<stop stop-color="#2388FF"/>
<stop offset="1" stop-color="#4A3AFF" stop-opacity="0"/>
</linearGradient>
<linearGradient id="paint2_linear_175_9646" x1="996.684" y1="-813" x2="996.684" y2="538.332" gradientUnits="userSpaceOnUse">
<stop stop-color="#2388FF"/>
<stop offset="1" stop-color="#4A3AFF" stop-opacity="0"/>
</linearGradient>
<linearGradient id="paint3_linear_175_9646" x1="641.729" y1="-385.21" x2="641.729" y2="408.393" gradientUnits="userSpaceOnUse">
<stop stop-color="#2388FF"/>
<stop offset="1" stop-color="#4A3AFF" stop-opacity="0"/>
</linearGradient>
<linearGradient id="paint4_linear_175_9646" x1="797.352" y1="-385.21" x2="797.352" y2="408.393" gradientUnits="userSpaceOnUse">
<stop stop-color="#2388FF"/>
<stop offset="1" stop-color="#4A3AFF" stop-opacity="0"/>
</linearGradient>
<linearGradient id="paint5_linear_175_9646" x1="460.611" y1="-486.231" x2="460.611" y2="210.53" gradientUnits="userSpaceOnUse">
<stop stop-color="#2388FF"/>
<stop offset="1" stop-color="#4A3AFF" stop-opacity="0"/>
</linearGradient>
<linearGradient id="paint6_linear_175_9646" x1="978.47" y1="-486.231" x2="978.47" y2="210.53" gradientUnits="userSpaceOnUse">
<stop stop-color="#2388FF"/>
<stop offset="1" stop-color="#4A3AFF" stop-opacity="0"/>
</linearGradient>
<linearGradient id="paint7_linear_175_9646" x1="719.541" y1="-405.532" x2="719.541" y2="430.614" gradientUnits="userSpaceOnUse">
<stop stop-color="#2388FF"/>
<stop offset="1" stop-color="#4A3AFF" stop-opacity="0"/>
</linearGradient>
<clipPath id="clip0_175_9646">
<rect width="1430" height="1175" fill="white"/>
</clipPath>
</defs>
</svg>
