<svg width="843" height="207" viewBox="0 0 843 207" fill="none" xmlns="http://www.w3.org/2000/svg">
<path fill-rule="evenodd" clip-rule="evenodd" d="M157 85C157 124.764 124.764 157 85 157C45.2355 157 13 124.764 13 85C13 45.2355 45.2355 13 85 13C124.764 13 157 45.2355 157 85Z" stroke="white" stroke-linecap="round" stroke-linejoin="round"/>
<path fill-rule="evenodd" clip-rule="evenodd" d="M325 85C325 124.764 292.764 157 253 157C213.236 157 181 124.764 181 85C181 45.2355 213.236 13 253 13C292.764 13 325 45.2355 325 85Z" stroke="white" stroke-linecap="round" stroke-linejoin="round"/>
<path fill-rule="evenodd" clip-rule="evenodd" d="M493 85C493 124.764 460.764 157 421 157C381.236 157 349 124.764 349 85C349 45.2355 381.236 13 421 13C460.764 13 493 45.2355 493 85Z" stroke="white" stroke-linecap="round" stroke-linejoin="round"/>
<path fill-rule="evenodd" clip-rule="evenodd" d="M661 85C661 124.764 628.764 157 589 157C549.236 157 517 124.764 517 85C517 45.2355 549.236 13 589 13C628.764 13 661 45.2355 661 85Z" stroke="white" stroke-linecap="round" stroke-linejoin="round"/>
<path fill-rule="evenodd" clip-rule="evenodd" d="M829 85C829 124.764 796.764 157 757 157C717.236 157 685 124.764 685 85C685 45.2355 717.236 13 757 13C796.764 13 829 45.2355 829 85Z" stroke="white" stroke-linecap="round" stroke-linejoin="round"/>
<path d="M674 85C674 68.3864 678.927 52.1459 688.157 38.3321C697.387 24.5184 710.506 13.7519 725.855 7.3942C741.204 1.0364 758.093 -0.627103 774.388 2.6141C790.682 5.8552 805.649 13.8555 817.397 25.6031C829.145 37.3507 837.145 52.3181 840.386 68.6125C843.627 84.9069 841.964 101.797 835.606 117.146C829.248 132.495 818.482 145.613 804.668 154.844C790.854 164.074 775.114 169 758.5 169L758.5 206M758.5 206L743.804 191.357M758.5 206L773.196 191.357" stroke="white" stroke-linecap="round" stroke-linejoin="round"/>
<path d="M1 85C1 68.3864 5.9265 52.1459 15.1566 38.3321C24.3866 24.5184 37.5056 13.7519 52.8546 7.3942C68.2036 1.0364 85.0932 -0.627103 101.388 2.6141C117.682 5.8552 132.649 13.8555 144.397 25.6031C156.145 37.3507 164.145 52.3181 167.386 68.6125C170.627 84.9069 168.964 101.797 162.606 117.146C156.248 132.495 145.482 145.613 131.668 154.844C117.854 164.074 102.114 169 85.5 169L85.5001 206M85.5001 206L70.8045 191.357M85.5001 206L100.196 191.357" stroke="white" stroke-linecap="round" stroke-linejoin="round"/>
<path d="M169 85C169 68.3864 173.927 52.1459 183.157 38.3321C192.387 24.5184 205.506 13.7519 220.855 7.3942C236.204 1.0364 253.093 -0.627103 269.388 2.6141C285.682 5.8552 300.649 13.8555 312.397 25.6031C324.145 37.3507 332.145 52.3181 335.386 68.6125C338.627 84.9069 336.964 101.797 330.606 117.146C324.248 132.495 313.482 145.613 299.668 154.844C285.854 164.074 270.114 169 253.5 169L253.5 206M253.5 206L238.804 191.357M253.5 206L268.196 191.357" stroke="white" stroke-linecap="round" stroke-linejoin="round"/>
<path d="M337 85C337 68.3864 341.927 52.1459 351.157 38.3321C360.387 24.5184 373.506 13.7519 388.855 7.3942C404.204 1.0364 421.093 -0.627103 437.388 2.6141C453.682 5.8552 468.649 13.8555 480.397 25.6031C492.145 37.3507 500.145 52.3181 503.386 68.6125C506.627 84.9069 504.964 101.797 498.606 117.146C492.248 132.495 481.482 145.613 467.668 154.844C453.854 164.074 438.114 169 421.5 169L421.5 206M421.5 206L406.805 191.357M421.5 206L436.196 191.357" stroke="white" stroke-linecap="round" stroke-linejoin="round"/>
<path d="M505 85C505 68.3864 509.927 52.1459 519.157 38.3321C528.387 24.5184 541.506 13.7519 556.855 7.3942C572.204 1.0364 589.093 -0.627103 605.388 2.6141C621.682 5.8552 636.65 13.8555 648.397 25.6031C660.145 37.3507 668.145 52.3181 671.386 68.6125C674.627 84.9069 672.964 101.797 666.606 117.146C660.248 132.495 649.482 145.613 635.668 154.844C621.854 164.074 606.114 169 589.5 169L589.5 206M589.5 206L574.805 191.357M589.5 206L604.196 191.357" stroke="white" stroke-linecap="round" stroke-linejoin="round"/>
<path d="M1 85C1 68.3864 5.9265 52.1459 15.1566 38.3321C24.3866 24.5184 37.5056 13.7519 52.8546 7.3942C68.2036 1.0364 85.0932 -0.627103 101.388 2.6141C117.682 5.8552 132.649 13.8555 144.397 25.6031C156.145 37.3507 164.145 52.3181 167.386 68.6125C170.627 84.9069 168.964 101.797 162.606 117.146C156.248 132.495 145.482 145.613 131.668 154.844C117.854 164.074 102.114 169 85.5 169L85.5001 206M85.5001 206L70.8045 191.357M85.5001 206L100.196 191.357" stroke="white" stroke-linecap="round" stroke-linejoin="round"/>
<path d="M80.6125 100.05C89.3125 91.35 89.3125 76.95 80.6125 68.25M90.2125 109.35C104.313 95.25 104.313 72.4499 90.2125 58.3498M101.013 117.75C118.713 98.85 118.713 69.15 101.013 50.25M64.7125 93.1494C69.6831 93.1494 73.7125 89.1201 73.7125 84.1494C73.7125 79.179 69.6831 75.1494 64.7125 75.1494C59.742 75.1494 55.7125 79.179 55.7125 84.1494C55.7125 89.1201 59.742 93.1494 64.7125 93.1494Z" stroke="#39FF14" stroke-width="2" stroke-linecap="round" stroke-linejoin="round"/>
<path d="M230.5 109.689C262 120.189 251.5 120.189 287.5 102.189C285.428 99.3976 281.832 98.199 278.5 99.189L265.3 103.572M230.5 93.315H239.5C244.606 93.4959 249.444 95.6461 253 99.315L262 99.315C263.2 99.0995 264.413 99.6196 265.084 100.637C265.755 101.655 265.755 102.975 265.084 103.993C264.413 105.01 263.2 105.53 262 105.315H245.5M254.512 78.189V84.189M269.512 57.189V63.189M218.512 90.315H230.512V114.315H218.512V90.315ZM260.512 60.189C260.512 65.1595 264.541 69.189 269.512 69.189C274.483 69.189 278.512 65.1595 278.512 60.189C278.512 55.2184 274.483 51.189 269.512 51.189C264.541 51.189 260.512 55.2184 260.512 60.189ZM245.512 81.189C245.512 86.1595 249.541 90.189 254.512 90.189C259.483 90.189 263.512 86.1595 263.512 81.189C263.512 76.2184 259.483 72.189 254.512 72.189C249.541 72.189 245.512 76.2184 245.512 81.189Z" stroke="white" stroke-linecap="round" stroke-linejoin="round"/>
<path d="M417.565 95.3131C415.345 92.8288 414.792 89.2721 416.152 86.231C417.513 83.1898 420.533 81.2318 423.865 81.2311M416.287 62.4391L402.949 69.8491M402.949 78.5311L415.414 85.4551M430 95.3131V90.7501C430 84.9511 434.701 80.2501 440.5 80.2501C446.299 80.2501 451 84.9511 451 90.7501V95.3131M436 106.5L439 109.5L445 103.5M387.25 74.1901C387.249 78.8566 391.031 82.6402 395.698 82.6402C400.365 82.6402 404.147 78.8566 404.146 74.1901C404.147 69.5236 400.365 65.74 395.698 65.74C391.031 65.74 387.249 69.5236 387.25 74.1901ZM415.414 58.6981C415.413 63.3646 419.195 67.1482 423.862 67.1482C428.529 67.1482 432.311 63.3646 432.31 58.6981C432.311 54.0316 428.529 50.248 423.862 50.248C419.195 50.248 415.413 54.0316 415.414 58.6981ZM430.75 95.2501H450.25C450.25 95.2501 454.75 95.2501 454.75 99.7501V113.25C454.75 113.25 454.75 117.75 450.25 117.75H430.75C430.75 117.75 426.25 117.75 426.25 113.25V99.7501C426.25 99.7501 426.25 95.2501 430.75 95.2501Z" stroke="#39FF14" stroke-width="2" stroke-linecap="round" stroke-linejoin="round"/>
<path d="M574.369 99.336C572.197 95.4958 567.907 93.3632 563.534 93.9495C559.161 94.5358 555.584 97.7232 554.5 102M603.631 99.336C605.803 95.4958 610.093 93.3632 614.466 93.9495C618.839 94.5358 622.416 97.7232 623.5 102M599.5 73.5C598.276 68.7003 593.953 65.3415 589 65.3415C584.047 65.3415 579.724 68.7003 578.5 73.5M559.75 86.25C559.75 89.1495 562.101 91.5 565 91.5C567.899 91.5 570.25 89.1495 570.25 86.25C570.25 83.3505 567.899 81 565 81C562.101 81 559.75 83.3505 559.75 86.25ZM607.75 86.25C607.75 89.1495 610.101 91.5 613 91.5C615.899 91.5 618.25 89.1495 618.25 86.25C618.25 83.3505 615.899 81 613 81C610.101 81 607.75 83.3505 607.75 86.25ZM583.75 57.75C583.75 60.6495 586.101 63 589 63C591.899 63 594.25 60.6495 594.25 57.75C594.25 54.8505 591.899 52.5 589 52.5C586.101 52.5 583.75 54.8505 583.75 57.75ZM606.247 111.9C606.427 112.782 606.201 113.699 605.632 114.396C605.063 115.094 604.21 115.499 603.31 115.5H574.69C573.79 115.499 572.937 115.094 572.368 114.396C571.799 113.699 571.573 112.782 571.753 111.9L578.002 81.9C578.287 80.5041 579.514 79.5011 580.939 79.5H597.061C598.486 79.5011 599.713 80.5041 599.998 81.9L606.247 111.9ZM596.254 107.787C596.316 108.218 596.188 108.654 595.903 108.983C595.618 109.311 595.204 109.5 594.769 109.5H583.231C582.796 109.5 582.382 109.311 582.097 108.983C581.812 108.654 581.684 108.218 581.746 107.787L582.817 100.287C582.923 99.5483 583.556 98.9999 584.302 99H593.698C594.444 98.9999 595.077 99.5483 595.183 100.287L596.254 107.787Z" stroke="white" stroke-linecap="round" stroke-linejoin="round"/>
<path d="M743.5 97.5C746.814 97.5 749.5 94.8137 749.5 91.5C749.5 88.1863 746.814 85.5 743.5 85.5C740.186 85.5 737.5 88.1863 737.5 91.5C737.5 94.8137 740.186 97.5 743.5 97.5ZM743.5 97.5C737.701 97.5 733 102.201 733 108H754C754 102.201 749.299 97.5 743.5 97.5ZM761.5 82.353V115.5C761.5 117.157 760.157 118.5 758.5 118.5H728.5C726.843 118.5 725.5 117.157 725.5 115.5V76.5C725.5 74.8431 726.843 73.5 728.5 73.5H757.768M788.434 49.5L775.255 58.5H758.089C751.711 58.5 746.389 68.88 742.849 73.5M762.577 67.5L753.616 78.681C752.056 80.2409 752.056 82.77 753.616 84.3299C755.176 85.8897 757.705 85.8898 759.265 84.33L771.502 73.5H779.167C782.8 73.5 788.5 68.328 788.5 68.328" stroke="#39FF14" stroke-width="2" stroke-linecap="round" stroke-linejoin="round"/>
</svg>
