<svg width="50" height="50" viewBox="0 0 50 50" fill="none" xmlns="http://www.w3.org/2000/svg">
<rect width="50" height="50" rx="25" fill="#030303"/>
<path d="M14.448 30.7391H25.0099M15.089 18.2173H34.9079M24.9943 24.4782H13M36.4456 21.3529C34.6006 15.5747 28.7319 12.0811 22.77 13.2119C16.8082 14.3427 12.6278 19.7423 13.0288 25.7945C13.4298 31.8466 18.2859 36.6482 24.3449 36.9833C18.081 28.6354 17.9672 19.8096 24.2311 13.027M25.7564 13.027C27.9653 15.3346 29.4772 18.2189 30.1181 21.3477M37 37C37 34.1185 34.663 31.7826 31.7801 31.7826C28.8972 31.7826 26.5602 34.1185 26.5602 37H37ZM28.6482 27.0879C28.6482 28.8168 30.0504 30.2184 31.7801 30.2184C33.5098 30.2184 34.912 28.8168 34.912 27.0879C34.912 25.359 33.5098 23.9575 31.7801 23.9575C30.0504 23.9575 28.6482 25.359 28.6482 27.0879Z" stroke="#39FF14" stroke-width="1.39131" stroke-linecap="round" stroke-linejoin="round"/>
</svg>
