<svg width="50" height="50" viewBox="0 0 50 50" fill="none" xmlns="http://www.w3.org/2000/svg">
<rect width="50" height="50" rx="25" fill="#030303"/>
<path d="M27.0435 22.3913H24.1144C23.7767 22.3642 23.4441 22.4867 23.2045 22.7262C22.9649 22.9658 22.8425 23.2984 22.8696 23.6362C22.8696 25 27.0435 26.0435 27.0435 27.4073C27.0495 27.7393 26.9203 28.0594 26.6855 28.2942C26.4507 28.529 26.1306 28.6582 25.7986 28.6522H22.8696M24.9565 22.3913V20.8261M24.9565 30.2174V28.6522M15.5652 21.3478V28.6522M15.5652 21.3478C14.7008 21.3478 14 20.6471 14 19.7826C14 18.9182 14.7008 18.2174 15.5652 18.2174C16.4297 18.2174 17.1304 18.9182 17.1304 19.7826C17.1304 20.6471 16.4297 21.3478 15.5652 21.3478ZM15.5652 28.6522C16.4297 28.6522 17.1304 29.3529 17.1304 30.2174C17.1304 31.0818 16.4297 31.7826 15.5652 31.7826C14.7008 31.7826 14 31.0818 14 30.2174C14 29.3529 14.7008 28.6522 15.5652 28.6522ZM34.3478 21.3478C33.4834 21.3478 32.7826 20.6471 32.7826 19.7826C32.7826 18.9182 33.4834 18.2174 34.3478 18.2174C35.2123 18.2174 35.913 18.9182 35.913 19.7826C35.913 20.6471 35.2123 21.3478 34.3478 21.3478ZM34.3478 21.3478V28.6522M34.3478 28.6522C35.2123 28.6522 35.913 29.3529 35.913 30.2174C35.913 31.0818 35.2123 31.7826 34.3478 31.7826C33.4834 31.7826 32.7826 31.0818 32.7826 30.2174C32.7826 29.3529 33.4834 28.6522 34.3478 28.6522ZM16.9332 30.9781L23.5885 34.6741M26.3245 34.6741L32.9798 30.9781M32.9798 19.0219L26.3245 15.3259M23.5885 15.3259L16.9332 19.0219M23.3913 14.5652C23.3913 15.4297 24.0921 16.1304 24.9565 16.1304C25.821 16.1304 26.5217 15.4297 26.5217 14.5652C26.5217 13.7008 25.821 13 24.9565 13C24.0921 13 23.3913 13.7008 23.3913 14.5652ZM23.3913 35.4348C23.3913 36.2992 24.0921 37 24.9565 37C25.821 37 26.5217 36.2992 26.5217 35.4348C26.5217 34.5703 25.821 33.8696 24.9565 33.8696C24.0921 33.8696 23.3913 34.5703 23.3913 35.4348Z" stroke="#39FF14" stroke-width="1.3913" stroke-linecap="round" stroke-linejoin="round"/>
</svg>
