<svg width="36" height="36" viewBox="0 0 36 36" fill="none" xmlns="http://www.w3.org/2000/svg">
<path d="M12.087 34.2609L15.0435 31.3043L12.087 28.3478M6.168 23.913C6.168 27.9951 9.4772 31.3043 13.5593 31.3043H15.0376M29.087 1.73913L26.1304 4.69565L29.087 7.65217M34.9941 12.087C34.9941 8.00485 31.6849 4.69565 27.6028 4.69565H26.1245M23.1739 29.087H35M1 5.43478H20.2174M4.69565 8.3913H11.3478M4.69565 11.3478H7.65217M23.1739 15.7826H35V35H23.1739V15.7826ZM29.081 31.6739C28.8769 31.6739 28.7115 31.8394 28.7115 32.0435C28.7115 32.2476 28.8769 32.413 29.081 32.413C29.2851 32.413 29.4506 32.2476 29.4506 32.0435C29.4506 31.8394 29.2851 31.6739 29.081 31.6739ZM1 1H20.2174V15.7826H1V1Z" stroke="#5FD52E" stroke-width="2" stroke-linecap="round" stroke-linejoin="round"/>
</svg>
