<svg width="37" height="37" viewBox="0 0 37 37" fill="none" xmlns="http://www.w3.org/2000/svg">
<path d="M12.2066 15.3909C10.9808 12.9361 8.22789 11.6467 5.55738 12.2764C2.88687 12.906 1 15.2896 1 18.0333C1 20.7771 2.88687 23.1606 5.55738 23.7903C8.22789 24.42 10.9808 23.1305 12.2066 20.6758M12.2066 15.3909L23.816 9.58693M12.2066 15.3909C13.0466 17.0529 13.0466 19.0152 12.2066 20.6773L23.816 26.4827C24.8165 24.479 26.8628 23.2123 29.1024 23.2103C31.7468 23.2082 34.0714 24.9618 34.7957 27.5051C35.52 30.0485 34.468 32.7636 32.2192 34.155C29.9704 35.5464 27.0712 35.2761 25.1184 33.4928C23.1657 31.7096 22.6339 28.8468 23.816 26.4812M23.816 9.58693C22.6272 7.21549 23.1581 4.34304 25.116 2.55321C27.0739 0.763375 29.9823 0.491667 32.2379 1.88788C34.4934 3.2841 35.5472 6.00851 34.8182 8.55909C34.0893 11.1097 31.755 12.8658 29.1024 12.8593C26.8628 12.8573 24.8165 11.5906 23.816 9.58693Z" stroke="#39FF14" stroke-width="2" stroke-linecap="round" stroke-linejoin="round"/>
</svg>
