<svg width="36" height="36" viewBox="0 0 36 36" fill="none" xmlns="http://www.w3.org/2000/svg">
<path fill-rule="evenodd" clip-rule="evenodd" d="M1 18C1 27.3888 8.61116 35 18 35C27.3888 35 35 27.3888 35 18C35 8.61116 27.3888 1 18 1C8.61116 1 1 8.61116 1 18Z" stroke="#39FF14" stroke-width="2" stroke-linecap="round" stroke-linejoin="round"/>
<path d="M20.917 10C21.515 10.0002 21.9998 10.485 22 11.083C22 11.6812 21.5152 12.1668 20.917 12.167H15.167V23.583H20.917C21.5152 23.5832 22 24.0688 22 24.667C21.9998 25.265 21.515 25.7498 20.917 25.75H14.7773C13.7959 25.7498 13.0002 24.9541 13 23.9727V11.7773C13.0002 10.7958 13.7958 10.0002 14.7773 10H20.917ZM18.708 16.25C19.6055 16.25 20.333 16.9775 20.333 17.875C20.333 18.7725 19.6055 19.5 18.708 19.5C17.8107 19.4998 17.083 18.7723 17.083 17.875C17.083 16.9776 17.8107 16.2502 18.708 16.25Z" fill="#39FF14"/>
</svg>
