<svg width="176" height="28" viewBox="0 0 176 28" fill="none" xmlns="http://www.w3.org/2000/svg">
<path d="M14.2227 0C15.2042 0.000233002 15.9998 0.795847 16 1.77734V2.07422C15.9999 3.05585 15.2042 3.85133 14.2227 3.85156H3.85156V24.1484H14.2227C15.2042 24.1487 15.9999 24.9442 16 25.9258V26.2227C15.9998 27.2042 15.2042 27.9998 14.2227 28H1.77734C0.795847 27.9998 0.000233744 27.2042 0 26.2227V1.77734C0.000234455 0.795848 0.795848 0.000234547 1.77734 0H14.2227ZM10.1484 11.1113C11.7438 11.1115 13.0371 12.4046 13.0371 14C13.0371 15.5954 11.7438 16.8885 10.1484 16.8887C8.55295 16.8887 7.25879 15.5955 7.25879 14C7.25879 12.4045 8.55295 11.1113 10.1484 11.1113Z" fill="#5FD52E"/>
<path d="M37.3555 8.91797H30.3945V13.7109H33.3945C33.6602 13.7109 33.8906 13.8086 34.0859 14.0039C34.2812 14.1992 34.3789 14.4297 34.3789 14.6953C34.3789 14.9766 34.2812 15.2148 34.0859 15.4102C33.8984 15.6055 33.668 15.7031 33.3945 15.7031H30.3945V20.5312H37.3789C37.6445 20.5312 37.875 20.6289 38.0703 20.8242C38.2656 21.0117 38.3633 21.2422 38.3633 21.5156C38.3633 21.7891 38.2617 22.0234 38.0586 22.2188C37.8633 22.4062 37.6289 22.5 37.3555 22.5H28.4258V6.92578H37.3555C37.6289 6.92578 37.8633 7.02734 38.0586 7.23047C38.2617 7.42578 38.3633 7.66016 38.3633 7.93359C38.3633 8.19922 38.2617 8.42969 38.0586 8.625C37.8633 8.82031 37.6289 8.91797 37.3555 8.91797ZM45.3102 9.60938V6.94922H55.2477V9.63281C55.2477 9.90625 55.15 10.1406 54.9547 10.3359C54.7594 10.5234 54.5289 10.6172 54.2633 10.6172C53.9898 10.6172 53.7516 10.5195 53.5484 10.3242C53.3531 10.1289 53.2555 9.89844 53.2555 9.63281V8.91797H51.2633V21.5156C51.2633 21.7891 51.1656 22.0234 50.9703 22.2188C50.775 22.4062 50.5445 22.5 50.2789 22.5C49.9977 22.5 49.7594 22.4062 49.5641 22.2188C49.3687 22.0234 49.2711 21.7891 49.2711 21.5156V8.91797H47.2789V9.60938C47.2789 9.88281 47.1812 10.1172 46.9859 10.3125C46.7984 10.5 46.568 10.5938 46.2945 10.5938C46.0211 10.5938 45.7867 10.5 45.5914 10.3125C45.4039 10.1172 45.3102 9.88281 45.3102 9.60938ZM62.1945 21.5156V7.91016C62.1945 7.64453 62.2883 7.41406 62.4758 7.21875C62.6711 7.02344 62.9055 6.92578 63.1789 6.92578C63.4445 6.92578 63.675 7.02344 63.8703 7.21875C64.0656 7.41406 64.1633 7.64453 64.1633 7.91016V13.7109H70.1633V7.91016C70.1633 7.64453 70.257 7.41406 70.4445 7.21875C70.6398 7.02344 70.8742 6.92578 71.1477 6.92578C71.4211 6.92578 71.6516 7.02344 71.8391 7.21875C72.0344 7.41406 72.132 7.65234 72.132 7.93359V21.5156C72.132 21.7812 72.0305 22.0117 71.8273 22.207C71.632 22.4023 71.4055 22.5 71.1477 22.5C70.8664 22.5 70.632 22.4062 70.4445 22.2188C70.257 22.0234 70.1633 21.7891 70.1633 21.5156V15.6797H64.1867V21.5156C64.1867 21.7812 64.0852 22.0117 63.882 22.207C63.6867 22.4023 63.4523 22.5 63.1789 22.5C62.9133 22.5 62.6828 22.4062 62.4875 22.2188C62.2922 22.0234 62.1945 21.7891 62.1945 21.5156ZM88.0789 8.91797H81.118V13.7109H84.118C84.3836 13.7109 84.6141 13.8086 84.8094 14.0039C85.0047 14.1992 85.1023 14.4297 85.1023 14.6953C85.1023 14.9766 85.0047 15.2148 84.8094 15.4102C84.6219 15.6055 84.3914 15.7031 84.118 15.7031H81.118V20.5312H88.1023C88.368 20.5312 88.5984 20.6289 88.7938 20.8242C88.9891 21.0117 89.0867 21.2422 89.0867 21.5156C89.0867 21.7891 88.9852 22.0234 88.782 22.2188C88.5867 22.4062 88.3523 22.5 88.0789 22.5H79.1492V6.92578H88.0789C88.3523 6.92578 88.5867 7.02734 88.782 7.23047C88.9852 7.42578 89.0867 7.66016 89.0867 7.93359C89.0867 8.19922 88.9852 8.42969 88.782 8.625C88.5867 8.82031 88.3523 8.91797 88.0789 8.91797ZM96.0805 21.5156V6.92578H103.041C103.846 6.92578 104.537 7.21875 105.116 7.80469C105.702 8.39062 105.995 9.08984 105.995 9.90234V11.0273C105.995 11.8477 105.705 12.5508 105.127 13.1367C104.549 13.7148 103.854 14.0039 103.041 14.0039H101.787L105.819 20.918C105.944 21.1211 106.006 21.3242 106.006 21.5273C106.006 21.793 105.905 22.0234 105.702 22.2188C105.498 22.4062 105.268 22.5 105.01 22.5C104.62 22.5 104.323 22.3242 104.12 21.9727L99.4906 14.0039H98.0727V21.5156C98.0727 21.7891 97.9711 22.0234 97.768 22.2188C97.5727 22.4062 97.3383 22.5 97.0648 22.5C96.7914 22.5 96.557 22.4062 96.3617 22.2188C96.1742 22.0234 96.0805 21.7891 96.0805 21.5156ZM98.0492 12.0352H103.041C103.315 12.0352 103.545 11.9414 103.733 11.7539C103.928 11.5586 104.026 11.3242 104.026 11.0508V9.90234C104.026 9.62891 103.928 9.39844 103.733 9.21094C103.545 9.01562 103.315 8.91797 103.041 8.91797H98.0492V12.0352ZM115.191 6.92578H120.312C120.938 6.92578 121.527 7.19141 122.082 7.72266C122.645 8.24609 122.926 8.88281 122.926 9.63281C122.926 9.91406 122.824 10.1523 122.621 10.3477C122.426 10.543 122.207 10.6406 121.965 10.6406C121.629 10.6406 121.398 10.5664 121.273 10.418C121.148 10.2617 121.027 9.97656 120.91 9.5625C120.801 9.14844 120.551 8.94141 120.16 8.94141H115.297C115.062 8.94141 114.945 9.01562 114.945 9.16406C114.945 9.25781 114.996 9.36719 115.098 9.49219L122.398 18.832C122.75 19.2852 122.926 19.7695 122.926 20.2852C122.926 20.8711 122.711 21.3867 122.281 21.832C121.859 22.2773 121.387 22.5 120.863 22.5H115.555C114.852 22.5 114.238 22.2344 113.715 21.7031C113.199 21.1641 112.941 20.5742 112.941 19.9336C112.941 19.1992 113.285 18.832 113.973 18.832C114.238 18.832 114.465 18.9297 114.652 19.125C114.84 19.3125 114.934 19.5352 114.934 19.793C114.934 20.0039 115.004 20.1797 115.145 20.3203C115.293 20.4609 115.477 20.5312 115.695 20.5312H120.594C120.805 20.5312 120.91 20.4492 120.91 20.2852C120.91 20.207 120.859 20.1055 120.758 19.9805L113.469 10.6406C113.125 10.1953 112.953 9.71094 112.953 9.1875C112.953 8.57812 113.172 8.05078 113.609 7.60547C114.047 7.15234 114.574 6.92578 115.191 6.92578ZM129.873 21.5156V6.92578H136.857C137.662 6.92578 138.353 7.21875 138.931 7.80469C139.517 8.39062 139.81 9.08984 139.81 9.90234V13.5938C139.81 14.4062 139.521 15.1016 138.943 15.6797C138.365 16.2578 137.67 16.5469 136.857 16.5469H131.865V21.5156C131.865 21.7891 131.767 22.0234 131.572 22.2188C131.384 22.4062 131.154 22.5 130.88 22.5C130.599 22.5 130.361 22.4062 130.166 22.2188C129.97 22.0234 129.873 21.7891 129.873 21.5156ZM131.865 14.5781H136.857C137.123 14.5781 137.353 14.4844 137.548 14.2969C137.744 14.1016 137.841 13.8672 137.841 13.5938V9.90234C137.841 9.62891 137.744 9.39844 137.548 9.21094C137.353 9.01562 137.123 8.91797 136.857 8.91797H131.865V14.5781ZM154.07 8.36719L156.238 12.7852C156.542 13.3867 156.695 14.0391 156.695 14.7422C156.695 15.4297 156.542 16.0781 156.238 16.6875L154.07 21.0586C153.609 22.0195 152.827 22.5 151.726 22.5C151.202 22.5 150.73 22.3633 150.308 22.0898C149.894 21.8164 149.581 21.4727 149.37 21.0586L147.191 16.6875C146.902 16.1172 146.757 15.4688 146.757 14.7422C146.757 14.0156 146.902 13.3633 147.191 12.7852L149.37 8.36719C149.863 7.40625 150.648 6.92578 151.726 6.92578C152.82 6.92578 153.601 7.40625 154.07 8.36719ZM151.07 9.35156L149.03 13.5C148.843 13.9141 148.749 14.3203 148.749 14.7188C148.749 15.1484 148.843 15.5586 149.03 15.9492L151.128 20.1445C151.238 20.4023 151.437 20.5312 151.726 20.5312C151.976 20.5312 152.167 20.4023 152.3 20.1445L154.409 15.9492C154.605 15.5352 154.702 15.125 154.702 14.7188C154.702 14.2891 154.605 13.8828 154.409 13.5L152.347 9.35156C152.214 9.04688 152.007 8.89453 151.726 8.89453C151.445 8.89453 151.226 9.04688 151.07 9.35156ZM163.665 9.60938V6.94922H173.602V9.63281C173.602 9.90625 173.505 10.1406 173.309 10.3359C173.114 10.5234 172.884 10.6172 172.618 10.6172C172.345 10.6172 172.106 10.5195 171.903 10.3242C171.708 10.1289 171.61 9.89844 171.61 9.63281V8.91797H169.618V21.5156C169.618 21.7891 169.52 22.0234 169.325 22.2188C169.13 22.4062 168.899 22.5 168.634 22.5C168.352 22.5 168.114 22.4062 167.919 22.2188C167.723 22.0234 167.626 21.7891 167.626 21.5156V8.91797H165.634V9.60938C165.634 9.88281 165.536 10.1172 165.341 10.3125C165.153 10.5 164.923 10.5938 164.649 10.5938C164.376 10.5938 164.141 10.5 163.946 10.3125C163.759 10.1172 163.665 9.88281 163.665 9.60938Z" fill="url(#paint0_linear_99_874)"/>
<defs>
<linearGradient id="paint0_linear_99_874" x1="26" y1="14" x2="175.934" y2="27.2448" gradientUnits="userSpaceOnUse">
<stop stop-color="white"/>
<stop offset="0.997238" stop-color="#999999" stop-opacity="0.33"/>
</linearGradient>
</defs>
</svg>
