<svg width="44" height="39" viewBox="0 0 44 39" fill="none" xmlns="http://www.w3.org/2000/svg">
<path d="M1.28009 12.5244L21.8197 37.8781L42.6485 12.5244M1.28009 12.5244C0.701498 11.2759 0.701498 9.3552 4.46225 5.03353M1.28009 12.5244C13.4303 18.8628 36.8627 16.846 42.6485 12.5244M42.6485 12.5244C43.42 11.8521 43.2271 9.3552 38.8878 5.03353M4.46225 5.03353C5.13727 6.47409 9.55379 9.3552 21.8197 9.3552C34.0856 9.3552 38.3092 6.47409 38.8878 5.03353M4.46225 5.03353C5.71586 3.59297 10.0166 1 21.8197 1C33.6227 1 37.4413 3.59297 38.8878 5.03353" stroke="#F366BB" stroke-linecap="round" stroke-linejoin="round"/>
</svg>
