<svg width="52" height="59" viewBox="0 0 52 59" fill="none" xmlns="http://www.w3.org/2000/svg">
<path d="M51 38.013L29.5714 57.71L28.4892 57.6691M51 38.013L49.4848 25.2424M51 38.013L43.4242 38.4459M28.4892 57.6691L27.4069 57.6283M28.4892 57.6691L43.4242 38.4459M49.4848 25.2424L34.7662 31.5195M49.4848 25.2424L43.4242 38.4459M43.4242 38.4459L34.7662 31.5195M34.7662 31.5195L37.7965 19.1818M34.7662 31.5195L27.4069 57.6283M37.7965 19.1818L24.3766 1M37.7965 19.1818L23.5108 24.8095M27.4069 57.6283L24.5931 57.5221M24.3766 1L12.039 21.3463M24.3766 1L23.5108 24.8095M23.5108 24.8095L12.039 21.3463M23.5108 24.8095L24.5931 57.5221M12.039 21.3463L14.8528 32.3853M14.8528 32.3853L2.51515 28.4892M14.8528 32.3853L7.92641 40.1775M14.8528 32.3853L20.9134 57.3832M2.51515 28.4892L1 40.1775M2.51515 28.4892L7.92641 40.1775M7.92641 40.1775H1M7.92641 40.1775L19.6147 57.3342M20.9134 57.3832L19.6147 57.3342M20.9134 57.3832L24.5931 57.5221M1 40.1775L18.0996 57.2771L19.6147 57.3342" stroke="#FFE711" stroke-linecap="round" stroke-linejoin="round"/>
</svg>
