<svg width="476" height="184" viewBox="0 0 476 184" fill="none" xmlns="http://www.w3.org/2000/svg">
<path fill-rule="evenodd" clip-rule="evenodd" d="M282.42 87.4425C282.432 87.0204 282.438 86.5968 282.438 86.1719C282.438 61.6297 262.542 41.7344 238 41.7344C213.458 41.7344 193.562 61.6297 193.562 86.1719C193.562 110.714 213.458 130.609 238 130.609C250.339 130.609 261.503 125.581 269.555 117.461C268.315 114.691 267.625 111.621 267.625 108.391C267.625 98.7231 273.799 90.4977 282.42 87.4425Z" stroke="#39FF14" stroke-width="1.23438" stroke-linecap="round" stroke-linejoin="round"/>
<path fill-rule="evenodd" clip-rule="evenodd" d="M400.938 123.203C400.938 137.519 389.332 149.125 375.016 149.125C360.699 149.125 349.094 137.519 349.094 123.203C349.094 108.887 360.699 97.2812 375.016 97.2812C389.332 97.2812 400.938 108.887 400.938 123.203Z" stroke="#39FF14" stroke-width="1.23438" stroke-linecap="round" stroke-linejoin="round"/>
<path fill-rule="evenodd" clip-rule="evenodd" d="M312.062 108.391C312.062 120.662 302.115 130.609 289.844 130.609C277.573 130.609 267.625 120.662 267.625 108.391C267.625 96.1195 277.573 86.1719 289.844 86.1719C302.115 86.1719 312.062 96.1195 312.062 108.391Z" stroke="#39FF14" stroke-width="1.23438" stroke-linecap="round" stroke-linejoin="round"/>
<path fill-rule="evenodd" clip-rule="evenodd" d="M212.078 156.531C212.078 170.848 200.473 182.453 186.156 182.453C171.84 182.453 160.234 170.848 160.234 156.531C160.234 142.215 171.84 130.609 186.156 130.609C200.473 130.609 212.078 142.215 212.078 156.531Z" stroke="#39FF14" stroke-width="1.23438" stroke-linecap="round" stroke-linejoin="round"/>
<path fill-rule="evenodd" clip-rule="evenodd" d="M108.391 115.797C108.391 128.068 98.443 138.016 86.1719 138.016C73.9008 138.016 63.9531 128.068 63.9531 115.797C63.9531 103.526 73.9008 93.5781 86.1719 93.5781C98.443 93.5781 108.391 103.526 108.391 115.797Z" stroke="#39FF14" stroke-width="1.23438" stroke-linecap="round" stroke-linejoin="round"/>
<path fill-rule="evenodd" clip-rule="evenodd" d="M460.188 49.1406C460.188 59.3665 451.898 67.6562 441.672 67.6562C431.446 67.6562 423.156 59.3665 423.156 49.1406C423.156 38.9148 431.446 30.625 441.672 30.625C451.898 30.625 460.188 38.9148 460.188 49.1406Z" stroke="#39FF14" stroke-width="1.23438" stroke-linecap="round" stroke-linejoin="round"/>
<path fill-rule="evenodd" clip-rule="evenodd" d="M312.062 15.8125C312.062 23.9932 305.431 30.625 297.25 30.625C289.069 30.625 282.438 23.9932 282.438 15.8125C282.438 7.6318 289.069 1 297.25 1C305.431 1 312.062 7.6318 312.062 15.8125Z" stroke="#39FF14" stroke-width="1.23438" stroke-linecap="round" stroke-linejoin="round"/>
<path fill-rule="evenodd" clip-rule="evenodd" d="M186.156 49.1406C186.156 59.3665 177.866 67.6562 167.641 67.6562C157.415 67.6562 149.125 59.3665 149.125 49.1406C149.125 38.9148 157.415 30.625 167.641 30.625C177.866 30.625 186.156 38.9148 186.156 49.1406Z" stroke="#39FF14" stroke-width="1.23438" stroke-linecap="round" stroke-linejoin="round"/>
<path fill-rule="evenodd" clip-rule="evenodd" d="M75.0625 38.0312C75.0625 46.2119 68.4307 52.8438 60.25 52.8438C52.0693 52.8438 45.4375 46.2119 45.4375 38.0312C45.4375 29.8506 52.0693 23.2188 60.25 23.2188C68.4307 23.2188 75.0625 29.8506 75.0625 38.0312Z" stroke="#39FF14" stroke-width="1.23438" stroke-linecap="round" stroke-linejoin="round"/>
<path d="M213.037 159.828C221.241 160.097 229.569 160.234 238 160.234C282.272 160.234 323.709 156.441 359.164 149.837C370.391 147.746 381.47 145.238 392.508 142.333C443.017 128.751 475 108.629 475 86.1719C475 76.601 469.191 67.4542 458.614 59.0569M210.477 144.716C219.447 145.181 228.639 145.422 238 145.422C280.256 145.422 319.069 140.507 349.573 132.298M159.024 156.023C66.9614 145.858 1 118.422 1 86.1719C1 70.119 17.3431 55.2589 45.1134 43.128M267.143 113.722C258.353 114.863 247.774 115.901 238 115.901C228.16 115.901 210.198 113.857 202.447 112.834C175.267 108.033 156.531 97.8982 156.531 86.1719C156.531 74.6813 174.521 64.7187 200.818 59.8053M311.348 99.0808C316.551 95.179 319.469 90.7993 319.469 86.1719C319.469 74.6898 301.505 64.7335 275.241 59.8162M399.206 111.167C409.822 103.572 415.75 95.1028 415.75 86.1719C415.75 61.0321 368.779 39.5493 302.494 30.9425L288.711 29.3681C272.641 27.7765 255.62 26.9219 238 26.9219C215.695 26.9219 194.349 28.2914 174.678 30.7919M313.187 15.914C357.376 20.53 395.765 29.103 424.049 40.287M248.501 41.8867C313.124 43.7699 363.906 62.8777 363.906 86.1719C363.906 101.862 340.868 115.652 306.079 123.559C296.808 126.028 286.447 127.459 279.622 128.124C266.593 129.734 252.586 130.609 238 130.609C168.464 130.609 112.094 110.714 112.094 86.1719C112.094 73.9417 126.093 62.8655 148.743 54.8303M186.911 45.545C199.489 43.5717 213.153 42.3048 227.499 41.8867M155.449 33.6857C98.8513 43.5969 60.25 63.3817 60.25 86.1719C60.25 91.8002 62.6043 97.2452 67.0026 102.403M281.467 13.3522C267.376 12.536 252.847 12.1094 238 12.1094C174.94 12.1094 117.632 19.8057 75.1708 32.3566M107.065 126.243C123.131 132.073 142.655 136.827 164.553 140.143" stroke="#B7B7B7" stroke-width="1.23438" stroke-linecap="round" stroke-linejoin="round" stroke-dasharray="3.09 4.32"/>
<path d="M293.258 24.6846C293.864 23.0193 295.435 21.9007 297.206 21.8727C298.978 21.8446 300.583 22.9129 301.242 24.558M293.95 23.4649C293.37 23.0098 292.654 22.7628 291.916 22.7636C290.666 22.7669 289.523 23.47 288.956 24.5843M305.544 24.5843C304.977 23.47 303.834 22.7669 302.584 22.7636C301.859 22.762 301.154 23.0001 300.578 23.4409M302.265 6.94043L299.453 7.01758C298.939 7.03212 298.441 7.20448 298.027 7.51133L295.337 9.50716C294.772 9.92729 294.364 10.525 294.18 11.2044L293.717 12.9133C293.533 13.4373 293.531 14.008 293.71 14.5334C293.992 15.0829 294.635 15.3402 295.218 15.1359C295.561 15.0268 295.823 14.749 295.912 14.4007L296.489 11.9875C296.584 11.7637 296.743 11.5733 296.947 11.4405L298.879 10.1807C299.24 9.94503 299.697 9.91574 300.084 10.1035C300.393 10.2578 300.938 10.5556 301.058 10.8642C301.296 11.3534 301.212 11.9381 300.845 12.34L299.399 13.7511C298.955 14.1559 298.881 14.8271 299.226 15.3187C299.669 15.8472 300.293 15.5363 300.868 15.1382L303.468 13.3391C303.696 13.1811 303.863 12.9512 303.944 12.6864L304.484 10.9205M294.655 18.7364C294.655 20.1831 295.827 21.356 297.274 21.356C298.721 21.356 299.893 20.1831 299.893 18.7364C299.893 17.2897 298.721 16.1168 297.274 16.1168C295.827 16.1168 294.655 17.2897 294.655 18.7364ZM290.228 19.6676C290.228 20.5999 290.984 21.3556 291.916 21.3556C292.848 21.3556 293.604 20.5999 293.604 19.6676C293.604 18.7353 292.848 17.9796 291.916 17.9796C290.984 17.9796 290.228 18.7353 290.228 19.6676ZM300.896 19.6676C300.896 20.5999 301.652 21.3556 302.584 21.3556C303.516 21.3556 304.272 20.5999 304.272 19.6676C304.272 18.7353 303.516 17.9796 302.584 17.9796C301.652 17.9796 300.896 18.7353 300.896 19.6676Z" stroke="#39FF14" stroke-width="1.23438" stroke-linecap="round" stroke-linejoin="round"/>
<path d="M55.132 44.2681H65.672M55.8363 44.4394V46.5556M64.7963 44.3962V46.5556M59.4615 42.361C59.3921 43.0951 59.0486 43.776 58.4995 44.2681M61.0361 42.361C61.1056 43.0951 61.4491 43.776 61.9982 44.2681M54.136 33.6895C54.084 34.3523 53.797 34.9748 53.3267 35.4447M55.4591 33.6895C55.511 34.3523 55.798 34.9748 56.2684 35.4447M64.6528 33.6895C64.6009 34.3523 64.3139 34.9748 63.8436 35.4447M65.9759 33.6895C66.0279 34.3523 66.3149 34.9748 66.7852 35.4447M51.7629 35.4447H68.8397M52.4665 35.6159V38.8893M67.9641 35.5735V38.8893M57.549 37.7321H62.9494C62.9494 37.7321 63.7209 37.7321 63.7209 38.5036V41.5895C63.7209 41.5895 63.7209 42.361 62.9494 42.361H57.549C57.549 42.361 56.7775 42.361 56.7775 41.5895V38.5036C56.7775 38.5036 56.7775 37.7321 57.549 37.7321ZM62.9494 29.5073H67.6802C67.6802 29.5073 68.4516 29.5073 68.4516 30.2788V32.9181C68.4516 32.9181 68.4516 33.6895 67.6802 33.6895H62.9494C62.9494 33.6895 62.1779 33.6895 62.1779 32.9181V30.2788C62.1779 30.2788 62.1779 29.5073 62.9494 29.5073ZM52.4318 29.5073H57.1625C57.1625 29.5073 57.934 29.5073 57.934 30.2788V32.9181C57.934 32.9181 57.934 33.6895 57.1625 33.6895H52.4318C52.4318 33.6895 51.6603 33.6895 51.6603 32.9181V30.2788C51.6603 30.2788 51.6603 29.5073 52.4318 29.5073Z" stroke="#39FF14" stroke-width="1.23438" stroke-linecap="round" stroke-linejoin="round"/>
<path d="M173.195 47.752V46.3633C173.195 45.5963 172.574 44.9746 171.807 44.9746C171.04 44.9746 170.418 45.5963 170.418 46.3633V45.4375C170.418 44.6706 169.796 44.0488 169.029 44.0488C168.262 44.0488 167.641 44.6706 167.641 45.4375V46.3633M173.195 47.752C174.729 47.752 175.973 48.9954 175.973 50.5293C175.973 52.3809 175.047 57.0098 169.802 57.0098H166.715C164.158 57.0098 162.086 54.9373 162.086 52.3809V47.2891C162.086 46.5221 162.708 45.9004 163.475 45.9004C164.242 45.9004 164.863 46.5221 164.863 47.2891M173.195 47.752H171.344C170.321 47.752 169.492 48.5809 169.492 49.6035C169.492 50.6261 170.321 51.4551 171.344 51.4551H172.27C172.27 51.4551 169.492 52.3809 169.492 54.2324M167.641 46.3633V49.6035C167.641 50.3705 167.019 50.9922 166.252 50.9922C165.485 50.9922 164.863 50.3705 164.863 49.6035M167.641 46.3633C167.641 45.5963 167.019 44.9746 166.252 44.9746C165.485 44.9746 164.863 45.5963 164.863 46.3633V47.2891M164.863 47.2891V50.5293C164.863 51.2962 164.242 51.918 163.475 51.918C162.708 51.918 162.086 51.2962 162.086 50.5293M162.086 59.7871V57.9355C162.086 57.4243 162.5 57.0098 163.012 57.0098H173.195C173.707 57.0098 174.121 57.4243 174.121 57.9355V59.7871M164.4 38.4941L165.326 40.8086M159.309 42.1973L161.623 43.5859M170.881 38.4941L169.955 40.8086M175.973 42.1973L173.658 43.5859" stroke="#39FF14" stroke-width="1.23438" stroke-linecap="round" stroke-linejoin="round"/>
<path d="M440.84 39.4087H435.033C434.522 39.4087 434.107 39.8232 434.107 40.3345V46.4573M442.504 58.8727H448.311C448.822 58.8727 449.236 58.4582 449.236 57.9469V51.824M431.701 44.0489L434.108 46.4566L436.516 44.0489M451.643 54.2325L449.235 51.8247L446.827 54.2325M439.618 58.8718C439.101 57.1774 437.499 55.907 435.659 55.907C433.82 55.907 432.218 57.1774 431.701 58.8718M451.642 47.804C451.125 46.1096 449.524 44.8393 447.684 44.8393C445.844 44.8393 444.242 46.1096 443.725 47.804M435.659 55.2009C436.963 55.2009 438.021 54.1434 438.021 52.8389C438.021 51.5344 436.963 50.4769 435.659 50.4769C434.354 50.4769 433.297 51.5344 433.297 52.8389C433.297 54.1434 434.354 55.2009 435.659 55.2009ZM447.683 44.1331C448.987 44.1331 450.045 43.0756 450.045 41.7711C450.045 40.4666 448.987 39.4091 447.683 39.4091C446.378 39.4091 445.321 40.4666 445.321 41.7711C445.321 43.0756 446.378 44.1331 447.683 44.1331Z" stroke="#39FF14" stroke-width="1.23438" stroke-linecap="round" stroke-linejoin="round"/>
<path d="M221.658 97.2183L217.633 107.465M223.188 107.465L224.841 98.207M254.342 97.2183L258.367 107.465M252.812 107.465L251.159 98.207M242.318 86.8495L248.998 92.1932M227.002 92.1932L233.68 86.8495M223.763 90.8341L222.873 81.4856M234.478 99.3402L227.459 96.0648M248.539 96.0666L241.522 99.3402M253.122 81.543L252.237 90.8249M241.424 69.9929L250.418 73.696M225.58 73.696L234.578 69.9911M238 72.2852C235.955 72.2852 234.297 70.6272 234.297 68.582C234.297 66.5369 235.955 64.8789 238 64.8789C240.045 64.8789 241.703 66.5369 241.703 68.582C241.703 70.6272 240.045 72.2852 238 72.2852ZM238 72.2852V77.8398M232.843 81.3319L224.113 77.8398M251.887 77.8398L243.153 81.3337M238 77.8398C241.068 77.8398 243.555 80.3268 243.555 83.3945C243.555 86.4623 241.068 88.9492 238 88.9492C234.932 88.9492 232.445 86.4623 232.445 83.3945C232.445 80.3268 234.932 77.8398 238 77.8398ZM240.05 88.5567L242.629 107.465M233.371 107.465L235.95 88.5567M220.41 94.5039C220.41 96.5491 222.068 98.207 224.113 98.207C226.158 98.207 227.816 96.5491 227.816 94.5039C227.816 92.4587 226.158 90.8008 224.113 90.8008C222.068 90.8008 220.41 92.4587 220.41 94.5039ZM217.633 76.9141C217.633 79.4705 219.705 81.543 222.262 81.543C224.818 81.543 226.891 79.4705 226.891 76.9141C226.891 74.3576 224.818 72.2852 222.262 72.2852C219.705 72.2852 217.633 74.3576 217.633 76.9141ZM248.184 94.5039C248.184 96.5491 249.842 98.207 251.887 98.207C253.932 98.207 255.59 96.5491 255.59 94.5039C255.59 92.4587 253.932 90.8008 251.887 90.8008C249.842 90.8008 248.184 92.4587 248.184 94.5039ZM249.109 76.9141C249.109 79.4705 251.182 81.543 253.738 81.543C256.295 81.543 258.367 79.4705 258.367 76.9141C258.367 74.3576 256.295 72.2852 253.738 72.2852C251.182 72.2852 249.109 74.3576 249.109 76.9141Z" stroke="#F4F4F4" stroke-width="1.23438" stroke-linecap="round" stroke-linejoin="round"/>
<path d="M88.224 121.807V124.154C88.224 125.234 87.36 126.206 86.1719 126.206M86.1719 126.206C84.9838 126.206 84.1197 125.342 84.1197 124.154V121.807M86.1719 126.206V127.827M92.8467 122.472C93.3504 122.094 93.8542 121.842 94.4839 121.842L95.9952 121.968C96.8768 122.094 97.6324 121.465 98.0102 120.709C98.388 119.827 98.1362 118.946 97.5064 118.316L96.373 117.308C95.9952 116.931 95.7433 116.427 95.7433 115.797C95.7433 115.293 95.9952 114.664 96.373 114.286L97.5064 113.278C98.1362 112.649 98.388 111.641 98.0102 110.885C97.6324 110.13 96.8768 109.626 95.9952 109.626L94.4839 109.752C93.8542 109.752 93.2245 109.5 92.8467 109.122C92.4688 108.619 92.217 108.115 92.217 107.485L92.3429 105.974C92.4688 105.092 91.8392 104.337 91.0835 103.959C90.2019 103.581 89.3203 103.833 88.6906 104.463L87.6831 105.596C87.3053 105.974 86.8016 106.226 86.1718 106.226C85.5421 106.226 85.0384 105.974 84.6605 105.596L83.6531 104.463C83.0234 103.833 82.1418 103.581 81.2602 103.959C80.5046 104.337 79.8749 105.092 80.0008 105.974L80.1267 107.485C80.1267 108.115 79.8749 108.619 79.497 109.122C79.1192 109.5 78.4895 109.752 77.8598 109.752L76.3485 109.626C75.4669 109.626 74.7113 110.13 74.3335 110.885C73.9556 111.641 74.2075 112.649 74.8372 113.278L75.9707 114.286C76.3485 114.664 76.6004 115.293 76.6004 115.797C76.6004 116.427 76.3485 116.931 75.9707 117.308L74.8372 118.316C74.2075 118.946 73.9556 119.827 74.3335 120.709C74.7113 121.465 75.4669 122.094 76.3485 121.968L77.8598 121.842C78.4895 121.842 78.9933 122.094 79.497 122.472M91.5723 116.81C91.5723 119.792 89.1544 122.21 86.1719 122.21C83.1893 122.21 80.7715 119.792 80.7715 116.81C80.7715 113.827 83.1893 111.409 86.1719 111.409C89.1544 111.409 91.5723 113.827 91.5723 116.81Z" stroke="#39FF14" stroke-width="1.23438" stroke-linecap="round" stroke-linejoin="round"/>
<path d="M289.844 100.363C293.423 100.363 296.324 103.264 296.324 106.843C296.324 110.422 293.423 113.323 289.844 113.323C286.265 113.323 283.363 110.422 283.363 106.843C283.363 103.264 286.265 100.363 289.844 100.363ZM289.844 100.363C290.738 100.363 291.464 101.088 291.464 101.983C291.464 102.877 290.738 103.603 289.844 103.603M291.464 109.649C290.461 110.228 289.226 110.228 288.224 109.649M278.75 99.7015V107.77C278.813 113.231 282.282 118.071 287.434 119.886L288.622 120.318C289.414 120.609 290.282 120.609 291.074 120.318L292.262 119.886C297.414 118.071 300.883 113.231 300.946 107.77V99.7015C300.944 99.0535 300.556 98.4689 299.96 98.2153C296.756 96.8792 293.315 96.2075 289.844 96.2409C286.376 96.2086 282.937 96.8803 279.736 98.2153C279.14 98.4689 278.752 99.0535 278.75 99.7015ZM292.679 105.223C292.903 105.223 293.084 105.404 293.084 105.628C293.084 105.852 292.903 106.033 292.679 106.033C292.455 106.033 292.274 105.852 292.274 105.628C292.274 105.404 292.455 105.223 292.679 105.223ZM287.009 105.223C287.232 105.223 287.414 105.404 287.414 105.628C287.414 105.852 287.232 106.033 287.009 106.033C286.785 106.033 286.603 105.852 286.603 105.628C286.603 105.404 286.785 105.223 287.009 105.223Z" stroke="#39FF14" stroke-width="1.23438" stroke-linecap="round" stroke-linejoin="round"/>
<path d="M375.957 130.298H363.522C362.098 130.297 360.944 129.142 360.944 127.717V111.589C360.944 110.164 362.098 109.009 363.522 109.008H382.877C384.302 109.008 385.457 110.164 385.457 111.589L385.457 119.41H360.941M360.941 114.048H385.457M360.941 124.756H375.957M370.955 114.048V130.298M378.134 114.048V122.713M378.516 130.056C378.516 129.043 379.338 128.221 380.352 128.221H387.254C388.267 128.222 389.088 129.044 389.088 130.056V135.563C389.088 136.576 388.267 137.397 387.254 137.398H380.352C379.338 137.398 378.516 136.577 378.516 135.563L378.516 130.056ZM383.803 122.709C381.817 122.751 380.239 124.394 380.279 126.38V128.217H387.327V126.384C387.369 124.396 385.791 122.751 383.803 122.709ZM383.803 131.524C383.261 131.502 382.76 131.811 382.537 132.306C382.314 132.801 382.414 133.382 382.79 133.773C383.166 134.165 383.742 134.288 384.245 134.086C384.749 133.883 385.078 133.395 385.078 132.852C385.093 132.133 384.522 131.539 383.803 131.524Z" stroke="#39FF14" stroke-width="1.23438" stroke-linecap="round" stroke-linejoin="round"/>
<path d="M192.328 157.272V148.816C192.328 145.408 189.565 142.645 186.156 142.645C182.748 142.645 179.984 145.408 179.984 148.816V150.668M178.133 162.395C178.133 166.826 181.725 170.418 186.156 170.418C190.587 170.418 194.18 166.826 194.18 162.395C194.18 157.963 190.587 154.371 186.156 154.371C181.725 154.371 178.133 157.963 178.133 162.395ZM183.688 162.395C183.688 163.758 184.793 164.863 186.156 164.863C187.52 164.863 188.625 163.758 188.625 162.395C188.625 161.031 187.52 159.926 186.156 159.926C184.793 159.926 183.688 161.031 183.688 162.395Z" stroke="#39FF14" stroke-width="1.23438" stroke-linecap="round" stroke-linejoin="round"/>
</svg>
