<svg width="44" height="57" viewBox="0 0 44 57" fill="none" xmlns="http://www.w3.org/2000/svg">
<path d="M1 34.5556L22.1111 56.3333M1 34.5556L4.77778 29.6667M1 34.5556L28.1111 39M22.1111 56.3333L43 32.3333M22.1111 56.3333L28.1111 39M4.77778 29.6667L16.7778 25L39.2222 27.8889M4.77778 29.6667L26.3333 32.7778M28.1111 39L43 32.3333M28.1111 39L26.3333 32.7778M43 32.3333L39.2222 27.8889M39.2222 27.8889L26.3333 32.7778M28.1111 23.2222L5.88889 20.1111L23.2222 1M28.1111 23.2222L41.8889 18.3333L23.2222 1M28.1111 23.2222L23.2222 1" stroke="#FB6762" stroke-linecap="round" stroke-linejoin="round"/>
</svg>
